{"title":"Timebomb 1991 BDRip XviD-PsiX","magnet":"magnet:?xt=urn:btih:7417f717a2811962cb4e86fa934bcbc0b2694bff&dn=Timebomb+1991+BDRip+XviD-PsiX&tr=udp%3A%2F%2Ftracker.leechers-paradise.org%3A6969&tr=udp%3A%2F%2Fzer0day.ch%3A1337&tr=udp%3A%2F%2Fopen.demonii.com%3A1337&tr=udp%3A%2F%2Ftracker.coppersurfer.tk%3A6969&tr=udp%3A%2F%2Fexodus.desync.com%3A6969","uploader":"sakhslitsa","categoryP":"video","categoryS":"movies","size":"726171179","seeders":"0","leechers":"0","description":"Timebomb 1991 BDRip XviD-PsiX\r\n <a href=\"\nhttp://www.imdb.com/title/tt0105597/\" rel=\"nofollow\" target=\"_NEW\">\nhttp://www.imdb.com/title/tt0105597/</a>\r\n\r\n\r\nFormat                      : AVI\r\nFormat/Info                 : Audio Video Interleave\r\nFile size                   : 692 MiB\r\nDuration                    : 1 h 36 min\r\n\r\nVideo\r\nID                          : 0\r\nFormat                      : MPEG-4 Visual\r\nFormat profile              : Advanced <a class=\"__cf_email__\" href=\"/cdn-cgi/l/email-protection\" data-cfemail=\"db88b2b6abb7be9b97ee\">[email&#xA0;protected]</a><script data-cfhash=\"f9e31\" type=\"text/javascript\">/* <![CDATA[ */!function(t,e,r,n,c,a,p){try{t=document.currentScript||function(){for(t=document.getElementsByTagName('script'),e=t.length;e--;)if(t[e].getAttribute('data-cfhash'))return t[e]}();if(t&&(c=t.previousSibling)){p=t.parentNode;if(a=c.getAttribute('data-cfemail')){for(e='',r='0x'+a.substr(0,2)|0,n=2;a.length-n;n+=2)e+='%'+('0'+('0x'+a.substr(n,2)^r).toString(16)).slice(-2);p.replaceChild(document.createTextNode(decodeURIComponent(e)),c)}p.removeChild(t)}}catch(u){}}()/* ]]> */</script>\r\nFormat settings, BVOP       : 1\r\nFormat settings, QPel       : No\r\nFormat settings, GMC        : No warppoints\r\nFormat settings, Matrix     : Default (H.263)\r\nCodec ID                    : XVID\r\nCodec ID/Hint               : XviD\r\nDuration                    : 1 h 36 min\r\nBit rate                    : 876 kb/s\r\nWidth                       : 640 pixels\r\nHeight                      : 352 pixels\r\nDisplay aspect ratio        : 16:9\r\nFrame rate                  : 23.976 (24000/1001) FPS\r\nColor space                 : YUV\r\nChroma subsampling          : 4:2:0\r\nBit depth                   : 8 bits\r\nScan type                   : Progressive\r\nCompression mode            : Lossy\r\nBits/(Pixel*Frame)          : 0.162\r\nStream size                 : 602 MiB (87%)\r\nWriting library             : XviD 67\r\n\r\nAudio\r\nID                          : 1\r\nFormat                      : MPEG Audio\r\nFormat version              : Version 1\r\nFormat profile              : Layer 3\r\nMode                        : Joint stereo\r\nMode extension              : MS Stereo\r\nCodec ID                    : 55\r\nCodec ID/Hint               : MP3\r\nDuration                    : 1 h 36 min\r\nBit rate mode               : Variable\r\nBit rate                    : 118 kb/s\r\nNominal bit rate            : 128 kb/s\r\nChannel(s)                  : 2 channels\r\nSampling rate               : 48.0 kHz\r\nCompression mode            : Lossy\r\nStream size                 : 81.3 MiB (12%)\r\nAlignment                   : Aligned on interleaves\r\nInterleave, duration        : 24  ms (0.58 video frame)\r\nInterleave, preload duratio : 71  ms\r\nTitle                       : Timebomb_T3_Audio - English\r\nWriting library             : LAME3.99r\r\nEncoding settings           : -m j -V 4 -q 2 -lowpass 17 --abr 128\r\n\r\nsub srt en","last_updated":"2017-08-17T12:00:26.113Z","parsed":{"xt":"urn:btih:7417f717a2811962cb4e86fa934bcbc0b2694bff","dn":"Timebomb 1991 BDRip XviD-PsiX","tr":["udp://exodus.desync.com:6969","udp://open.demonii.com:1337","udp://tracker.coppersurfer.tk:6969","udp://tracker.leechers-paradise.org:6969","udp://zer0day.ch:1337"],"infoHash":"7417f717a2811962cb4e86fa934bcbc0b2694bff","infoHashBuffer":{"type":"Buffer","data":[116,23,247,23,162,129,25,98,203,78,134,250,147,75,203,192,178,105,75,255]},"name":"Timebomb 1991 BDRip XviD-PsiX","announce":["udp://exodus.desync.com:6969","udp://open.demonii.com:1337","udp://tracker.coppersurfer.tk:6969","udp://tracker.leechers-paradise.org:6969","udp://zer0day.ch:1337"],"urlList":[]}}